<svg xmlns="http://www.w3.org/2000/svg" width="113" height="31.788" viewBox="0 0 113 31.788">
  <g id="Group_202" data-name="Group 202" transform="translate(-153 -3064)">
    <g id="Group_36" data-name="Group 36" transform="translate(113 3008.378)">
      <g id="Group_1" data-name="Group 1" transform="translate(40 55.622)">
        <g id="Group_2" data-name="Group 2" transform="translate(0 0)">
          <g id="Group_1-2" data-name="Group 1">
            <path id="Path_1" data-name="Path 1" d="M29.994,11.364H18.242v3.525h4.113v22.33H25.88V14.889h4.113Z" transform="translate(-5.871 -5.434)" fill="#fff"/>
            <path id="Path_2" data-name="Path 2" d="M56.409,11.364H50.534V37.215h5.875a5.877,5.877,0,0,0,5.877-5.878h0v-14.1a5.877,5.877,0,0,0-5.878-5.878Zm2.352,19.978a2.35,2.35,0,0,1-2.349,2.35H54.063v-18.8h2.349a2.35,2.35,0,0,1,2.349,2.35Z" transform="translate(-10.515 -5.434)" fill="#fff"/>
            <path id="Path_3" data-name="Path 3" d="M72.49,11.364l-2.352,8.082-2.35-8.082H64.264l4.275,12.927V37.219h3.2V24.291l4.275-12.927Z" transform="translate(-12.49 -5.434)" fill="#fff"/>
            <path id="Path_4" data-name="Path 4" d="M14.667,27.549A18.9,18.9,0,0,0,10.7,22.5,18.242,18.242,0,0,1,8.49,20.044,5.863,5.863,0,0,1,7.3,17.258a2.349,2.349,0,0,1,4.69-.068l2.165-3.676A5.877,5.877,0,0,0,3.793,17.248h0c.195,2.5,1.876,5.146,4.816,7.937a15.008,15.008,0,0,1,2.309,2.772A6.85,6.85,0,0,1,12,31.077a2.349,2.349,0,1,1-4.664.007l-2.3,3.872a5.87,5.87,0,0,0,10.51-3.608v-.267A9.253,9.253,0,0,0,14.667,27.549Z" transform="translate(-3.793 -5.443)" fill="#fff"/>
            <path id="Path_5" data-name="Path 5" d="M82.2,31.069a6.856,6.856,0,0,1,1.082-3.121,14.987,14.987,0,0,1,2.309-2.767c2.94-2.793,4.622-5.437,4.816-7.938h0a5.877,5.877,0,0,0-11.751,0h3.526a2.349,2.349,0,0,1,4.69,0,5.861,5.861,0,0,1-1.191,2.781,18.156,18.156,0,0,1-2.208,2.449A19.646,19.646,0,0,0,79.5,27.526a9.231,9.231,0,0,0-.862,3.532v2.636h0v3.538H90.407V33.694H82.2Z" transform="translate(-14.557 -5.453)" fill="#fff"/>
            <path id="Path_6" data-name="Path 6" d="M102.466,25.451h-.83V11.293h-3.5l-7.4,14.165v3.514h7.4v8.172h3.525V28.972h.8Zm-8.226,0,3.9-7.076v7.076Z" transform="translate(-16.297 -5.423)" fill="#fff"/>
            <path id="Path_7" data-name="Path 7" d="M117.653,11.288H113.9l-2.121,3.435-2.125-3.435H105.9l4,6.466-4,6.462h3.752l2.125-3.431,2.121,3.431h3.752l-4-6.462Z" transform="translate(-18.478 -5.423)" fill="#fff"/>
            <path id="Path_8" data-name="Path 8" d="M122.05,11.288v3.528h8.226L122.05,37.143h3.525L133.8,14.816V11.288Z" transform="translate(-20.801 -5.423)" fill="#fff"/>
            <path id="Path_9" data-name="Path 9" d="M38.474,8.077,40.7,4.437l2.212,3.651Z" transform="translate(-8.781 -4.437)" fill="#fff"/>
            <path id="Path_10" data-name="Path 10" d="M45.6,13.16l-1.624-2.1-1.636,2.108V31.716a2.183,2.183,0,1,1-4.366,0V13.172h0l-1.652-2.111L34.7,13.172V31.716a5.456,5.456,0,0,0,10.911,0V13.172Z" transform="translate(-8.238 -5.39)" fill="#fff"/>
          </g>
        </g>
      </g>
    </g>
  </g>
</svg>
